<svg xmlns="http://www.w3.org/2000/svg" width="187.229" height="100.754" viewBox="0 0 187.229 100.754">
  <g id="Logo" transform="translate(0.009 0.004)">
    <g id="Layer_2" data-name="Layer 2">
      <path id="Path_78" data-name="Path 78" d="M42.75,10.93c-.71-.77-7.39-7.86-16.67-6.65C16.63,5.5,9.81,14.62,9.76,23.86c0,10.27,8.28,19.11,17.18,20,4.29.42,11.85-.73,14.73-6.75,1.67-3.47,1.91-8.3-.63-11.72-4.17-5.62-13.19-4.05-14.52-3.82C15.36,23.46,6.75,35.17,4.69,46.62c-.82,4.57-2,17.15,7.23,26.82C22.1,84.05,36.25,82.1,37.84,81.85A31.26,31.26,0,0,0,63.11,58.18c3-12.81-3-24.17-4.27-26" fill="none" stroke="#fff" stroke-miterlimit="10" stroke-width="8.28"/>
      <path id="Path_79" data-name="Path 79" d="M41.76,10.41l4-3.83c.06-.06.12,0,.14,0L47.22,12l1.32,5.39c0,.08,0,.12-.1.1l-5.33-1.55-5.32-1.55a.08.08,0,0,1,0-.14Z" fill="#fff" stroke="#fff" stroke-miterlimit="10" stroke-width="1.26"/>
      <path id="Path_80" data-name="Path 80" d="M59.07,28.44l5.48,2.48c.08,0,.08.11,0,.16l-4.89,3.5-4.89,3.51a.09.09,0,0,1-.15-.07L54,32l-.59-6c0-.08,0-.12.13-.09Z" fill="#fff" stroke="#fff" stroke-miterlimit="10" stroke-width="1.37"/>
      <text id="lect" transform="translate(67.3 79.83)" fill="#fff" stroke="#fff" stroke-width="1.92" font-size="82.05" font-family="Helvetica" letter-spacing="-0.06em"><tspan x="0" y="0">le</tspan><tspan y="0" letter-spacing="-0.01em">c</tspan><tspan y="0">t</tspan></text>
    </g>
  </g>
</svg>
